<?xml version="1.0" encoding="UTF-8"?><svg id="_이어_2" xmlns="http://www.w3.org/2000/svg" viewBox="0 0 36.54 35.48"><defs><style>.cls-1{fill:#ffffe9;stroke-miterlimit:10;}.cls-1,.cls-2{stroke:#000;}.cls-2{fill:#aaaaaa;stroke-linejoin:bevel;}</style></defs><g id="_이어_1-2"><g><path class="cls-2" d="M29.86,8.63c-2.09-.22-4.05,.53-5.45,1.87,.47-.93,.75-1.99,.75-3.11,0-3.8-3.08-6.89-6.89-6.89s-6.89,3.08-6.89,6.89c0,1.12,.27,2.17,.75,3.11-1.24-1.18-2.9-1.91-4.75-1.91-3.8,0-6.89,3.08-6.89,6.89s3.08,6.89,6.89,6.89c.18,0,.35-.01,.53-.03-1.87,1.23-3.11,3.35-3.11,5.76,0,3.8,3.08,6.89,6.89,6.89,3.1,0,5.72-2.05,6.58-4.87,.86,2.82,3.48,4.87,6.58,4.87,3.8,0,6.89-3.08,6.89-6.89,0-2.41-1.24-4.53-3.11-5.76,3.71,.29,6.99-2.43,7.38-6.15,.39-3.78-2.36-7.17-6.14-7.56Z"/><circle class="cls-1" cx="18.27" cy="18.16" r="4.01"/></g></g></svg>